Coordinates
version=1
nRows=23
nColumns=38
inDegrees=no

Units are S.I. units (second, meters, Newtons, ...)
If the header above contains a line with 'inDegrees', this indicates whether rotational values are in degrees (yes) or radians (no).

endheader
time	pelvis_tilt	pelvis_list	pelvis_rotation	pelvis_tx	pelvis_ty	pelvis_tz	hip_flexion_r	hip_adduction_r	hip_rotation_r	knee_angle_r	ankle_angle_r	subtalar_angle_r	mtp_angle_r	hip_flexion_l	hip_adduction_l	hip_rotation_l	knee_angle_l	ankle_angle_l	subtalar_angle_l	mtp_angle_l	lumbar_extension	lumbar_bending	lumbar_rotation	arm_flex_r	arm_add_r	arm_rot_r	elbow_flex_r	pro_sup_r	wrist_flex_r	wrist_dev_r	arm_flex_l	arm_add_l	arm_rot_l	elbow_flex_l	pro_sup_l	wrist_flex_l	wrist_dev_l
0	0.43764	1.45251	-2.15693	0.825579	1.97166	1.03143	-0.45112	-0.0845566	-0.326488	0.201828	-0.0913362	0	0	0.250239	0.0984339	-0.401124	0.184203	-0.224035	0	0	-0.626976	-0.0505432	-0.0684185	-0.0596105	-0.464908	0.292936	0.929305	0.927743	0	0	-0.190295	-0.41346	0.118283	0.751904	1.23386	0	0
0.01	0.429519	1.45631	-2.14578	0.824229	1.95719	1.02995	-0.449322	-0.0868198	-0.31966	0.230353	-0.106351	0	0	0.248834	0.0976796	-0.398902	0.203926	-0.232507	0	0	-0.623743	-0.0487536	-0.0680834	-0.0612182	-0.457781	0.28985	0.920586	0.931137	0	0	-0.190126	-0.416135	0.113596	0.74866	1.23346	0	0
0.02	0.409181	1.45215	-2.12752	0.822102	1.94153	1.02918	-0.454672	-0.0946935	-0.312194	0.259718	-0.124146	0	0	0.237754	0.0993781	-0.40175	0.22044	-0.224515	0	0	-0.625039	-0.0529906	-0.0674202	-0.0636329	-0.449212	0.287733	0.911093	0.932665	0	0	-0.194001	-0.419765	0.108049	0.7464	1.23171	0	0
0.03	0.409561	1.45151	-2.13208	0.820008	1.92523	1.02828	-0.451565	-0.105656	-0.300118	0.296347	-0.143975	0	0	0.234285	0.098738	-0.407156	0.245516	-0.207466	0	0	-0.619536	-0.0589972	-0.0646138	-0.0675508	-0.439638	0.285632	0.898616	0.933524	0	0	-0.197303	-0.421692	0.103932	0.739733	1.22932	0	0
0.04	0.263236	1.48051	-1.98025	0.819506	1.90805	1.02263	-0.426561	-0.0858208	-0.281453	0.336765	-0.163	0	0	0.288528	0.0636304	-0.42623	0.316614	-0.17686	0	0	-0.586456	-0.0301522	-0.0523567	-0.0927275	-0.443318	0.272955	0.907815	0.936194	0	0	-0.207984	-0.41523	0.102184	0.735399	1.22362	0	0
0.05	0.305461	1.47582	-2.02466	0.817567	1.8922	1.02338	-0.417526	-0.103678	-0.267587	0.384736	-0.219574	0	0	0.250025	0.0701404	-0.405386	0.31734	-0.144304	0	0	-0.583945	-0.0421968	-0.062841	-0.0812594	-0.43565	0.299762	0.889508	0.915354	0	0	-0.219713	-0.41428	0.0742617	0.734968	1.22867	0	0
0.06	0.377624	1.47769	-2.09291	0.816229	1.87732	1.02421	-0.395609	-0.118709	-0.248694	0.437812	-0.269828	0	0	0.251483	0.0724193	-0.395116	0.342489	-0.133706	0	0	-0.575553	-0.0482118	-0.069634	-0.0811621	-0.422943	0.299484	0.876704	0.917744	0	0	-0.216525	-0.417803	0.0744526	0.725167	1.21772	0	0
0.07	0.451257	1.48138	-2.16004	0.81537	1.86318	1.02528	-0.367645	-0.130651	-0.224648	0.492902	-0.325962	0	0	0.256279	0.0727082	-0.392537	0.367496	-0.130949	0	0	-0.567693	-0.0499067	-0.0771322	-0.0797926	-0.412587	0.299851	0.8647	0.924597	0	0	-0.210357	-0.421126	0.077193	0.716646	1.20523	0	0
0.08	0.682402	1.4579	-2.38848	0.813755	1.85079	1.03126	-0.345588	-0.172435	-0.198184	0.546246	-0.372867	0	0	0.240136	0.109787	-0.369014	0.357989	-0.151831	0	0	-0.580552	-0.0842044	-0.0957854	-0.0560767	-0.388576	0.311532	0.827427	0.922394	0	0	-0.189739	-0.431818	0.0787756	0.70172	1.20032	0	0
0.09	0.555444	1.48775	-2.25786	0.813751	1.83577	1.02769	-0.302717	-0.147055	-0.154908	0.60555	-0.42355	0	0	0.254741	0.0751205	-0.383992	0.398395	-0.118388	0	0	-0.560403	-0.047604	-0.0790943	-0.0784751	-0.405322	0.305037	0.851479	0.917367	0	0	-0.194213	-0.423727	0.0761042	0.71116	1.20058	0	0
0.1	0.608381	1.48873	-2.30905	0.812881	1.82249	1.02879	-0.265008	-0.154337	-0.120038	0.667116	-0.491038	0	0	0.249069	0.0778951	-0.385336	0.40979	-0.105787	0	0	-0.559698	-0.0457935	-0.0744098	-0.0854261	-0.405268	0.297438	0.855998	0.911141	0	0	-0.182435	-0.428642	0.0871578	0.714259	1.19815	0	0
0.11	0.852473	1.48611	-2.55611	0.810835	1.80919	1.02702	-0.233481	-0.189158	-0.0879657	0.689557	-0.560897	0	0	0.253905	0.0924026	-0.39586	0.420682	-0.0951795	0	0	-0.542219	-0.059913	-0.0725837	-0.101922	-0.401372	0.283272	0.867118	0.912689	0	0	-0.182639	-0.441451	0.0993766	0.728547	1.1896	0	0
0.12	0.543424	1.4839	-2.19202	0.818041	1.80027	1.02941	-0.23508	-0.168709	-0.116999	0.725579	-0.649915	0	0	0.227282	0.102225	-0.295495	0.427066	-0.0791277	0	0	-0.583788	0.0030001	-0.0923911	-0.139556	-0.417495	0.20916	0.942775	0.943291	0	0	-0.148252	-0.451876	0.150862	0.753971	1.15583	0	0
0.13	0.885986	1.45531	-2.58716	0.808377	1.78504	1.03623	-0.163831	-0.203154	-0.0384993	0.810016	-0.678796	0	0	0.195238	0.12849	-0.391253	0.375533	-0.124914	0	0	-0.571812	-0.079664	-0.074875	-0.102741	-0.381273	0.239194	0.864151	0.95156	0	0	-0.137915	-0.464548	0.146086	0.731824	1.16981	0	0
0.14	0.786352	1.48778	-2.48877	0.808236	1.7715	1.03336	-0.101577	-0.175476	-0.0117155	0.922306	-0.628891	0	0	0.203884	0.0935095	-0.399066	0.40836	-0.0923897	0	0	-0.556245	-0.0421185	-0.0572824	-0.124129	-0.403866	0.231499	0.898344	0.952707	0	0	-0.148751	-0.456089	0.129109	0.758815	1.18726	0	0
0.15	0.836636	1.49458	-2.54268	0.808017	1.75964	1.03508	-0.0130569	-0.193557	0.00710512	1.15253	-0.472472	0	0	0.195454	0.0925484	-0.403439	0.398707	-0.090641	0	0	-0.551742	-0.0376866	-0.054028	-0.121928	-0.410092	0.230499	0.902145	0.954399	0	0	-0.144886	-0.45232	0.113985	0.772203	1.20734	0	0
0.16	0.924784	1.49777	-2.63195	0.807133	1.74769	1.03609	0.0494798	-0.200919	0.0278944	1.28036	-0.388666	0	0	0.189568	0.0942341	-0.407034	0.396279	-0.0898087	0	0	-0.543497	-0.0377295	-0.0569186	-0.120801	-0.412765	0.229481	0.90564	0.958352	0	0	-0.147538	-0.454321	0.10049	0.791236	1.21752	0	0
0.17	0.939278	1.50145	-2.64301	0.80622	1.73548	1.03761	0.0834667	-0.194246	0.0404069	1.31363	-0.355613	0	0	0.177512	0.0912647	-0.410922	0.393555	-0.0896927	0	0	-0.53896	-0.0328368	-0.0622486	-0.119235	-0.415921	0.229562	0.90857	0.963948	0	0	-0.150284	-0.457076	0.0884532	0.810513	1.22451	0	0
0.18	0.908335	1.48642	-2.59497	0.80428	1.72104	1.03699	-0.0203131	-0.201634	0.0253441	0.98673	-0.405878	0	0	0.150764	0.0989899	-0.425726	0.399353	-0.0826565	0	0	-0.537186	-0.0390377	-0.0887615	-0.133881	-0.411121	0.219813	0.925525	0.978927	0	0	-0.174762	-0.475531	0.0747523	0.850905	1.22097	0	0
0.19	0.859933	1.49092	-2.5393	0.80392	1.70893	1.03954	0.0107306	-0.196358	0.0297449	0.996272	-0.405965	0	0	0.134477	0.0931468	-0.424237	0.395415	-0.08461	0	0	-0.537397	-0.0290789	-0.0933669	-0.131396	-0.415877	0.219031	0.92619	0.986921	0	0	-0.170844	-0.476928	0.0685987	0.865832	1.22387	0	0
0.2	0.789847	1.49298	-2.46018	0.803641	1.69665	1.04231	0.0322008	-0.192642	0.0201613	1.01641	-0.361886	0	0	0.115059	0.0885764	-0.420892	0.390271	-0.0884169	0	0	-0.53949	-0.0188511	-0.0976045	-0.132913	-0.417594	0.208511	0.92787	1.00702	0	0	-0.1636	-0.478926	0.0672846	0.87849	1.22563	0	0
0.21	0.707476	1.4937	-2.36993	0.80325	1.68443	1.04534	0.0521856	-0.189083	0.00923151	1.03165	-0.315793	0	0	0.0937385	0.0848673	-0.414462	0.382252	-0.10097	0	0	-0.543505	-0.0104178	-0.105073	-0.127741	-0.420129	0.208017	0.925051	1.02349	0	0	-0.161737	-0.477609	0.051178	0.894601	1.23831	0	0
0.22	0.694306	1.45498	-2.35652	0.801425	1.6728	1.05472	0.0446374	-0.220868	-0.000572656	1.03056	-0.29789	0	0	0.0355336	0.117897	-0.396372	0.341692	-0.132894	0	0	-0.579042	-0.0384898	-0.1183	-0.105399	-0.41148	0.218471	0.902779	1.01935	0	0	-0.138849	-0.491215	0.060353	0.897348	1.2354	0	0
